<svg id="visual" viewBox="0 0 1200 500" width="1200" height="500" xmlns="http://www.w3.org/2000/svg" xmlns:xlink="http://www.w3.org/1999/xlink" version="1.1"><rect x="0" y="0" width="1200" height="500" fill="#71BCE1"></rect><path d="M0 280L28.5 294C57 308 114 336 171.2 337.7C228.3 339.3 285.7 314.7 342.8 308.3C400 302 457 314 514.2 332C571.3 350 628.7 374 685.8 362.3C743 350.7 800 303.3 857.2 294.8C914.3 286.3 971.7 316.7 1028.8 328.5C1086 340.3 1143 333.7 1171.5 330.3L1200 327L1200 501L1171.5 501C1143 501 1086 501 1028.8 501C971.7 501 914.3 501 857.2 501C800 501 743 501 685.8 501C628.7 501 571.3 501 514.2 501C457 501 400 501 342.8 501C285.7 501 228.3 501 171.2 501C114 501 57 501 28.5 501L0 501Z" fill="#F4FAFC" stroke-linecap="round" stroke-linejoin="miter"></path></svg>